General
Complete name : The Wronged Man (2010) DVDRip XviD-PrisM[PrisM-TWM-DVDRip.avi]
Format : AVI
Format/Info : Audio Video Interleave
File size : 701 MiB
Duration : 1h 28mn
Overall bit rate : 1 104 Kbps
Writing application : VirtualDubMod 1.5.10.2 (build 2540/release)
Writing library : VirtualDubMod build 2540/release

Video
Format : MPEG-4 Visual
Format profile : Simple@L3
Format settings, BVOP : No
Format settings, QPel : No
Format settings, GMC : No warppoints
Format settings, Matrix : Default
Codec ID : XVID
Codec ID/Hint : XviD
Duration : 1h 28mn
Bit rate : 962 Kbps
Width : 656 pixels
Height : 368 pixels
Display aspect ratio : 16/9
Frame rate : 23.976 fps
Resolution : 24 bits
Colorimetry : 4:2:0
Scan type : Progressive
Bits/(Pixel*Frame) : 0.166
Stream size : 611 MiB (87%)
Writing library : XviD 50

Audio
Format : MPEG Audio
Format version : Version 1
Format profile : Layer 3
Codec ID : 55
Codec ID/Hint : MP3
Duration : 1h 28mn
Bit rate mode : Variable
Bit rate : 129 Kbps
Nominal bit rate : 128 Kbps
Channel(s) : 2 channels
Sampling rate : 48.0 KHz
Resolution : 16 bits
Stream size : 82.1 MiB (12%)
Alignment : Aligned on interleaves
Interleave, duration : 24 ms (0.58 video frame)
Interleave, preload duration : 142 ms
Writing library : LAME3.90.
Encoding settings : ABR


IMDB link: http://www.imdb.com/title/tt1390543/
